<mxfile host="Electron" modified="2023-10-26T18:56:13.001Z" agent="Mozilla/5.0 (Windows NT 10.0; Win64; x64) AppleWebKit/537.36 (KHTML, like Gecko) draw.io/21.6.8 Chrome/114.0.5735.289 Electron/25.5.0 Safari/537.36" etag="s4vHE4Zdv398QddCCiZ5" version="21.6.8" type="device">
  <diagram name="Страница — 1" id="E4a-Txih3Y88uJPBIBOR">
    <mxGraphModel dx="1358" dy="672" grid="1" gridSize="10" guides="1" tooltips="1" connect="1" arrows="1" fold="1" page="1" pageScale="1" pageWidth="827" pageHeight="1169" math="0" shadow="0">
      <root>
        <mxCell id="0" />
        <mxCell id="1" parent="0" />
        <mxCell id="NslIbUxPtnbfVK3_lYNh-31" style="edgeStyle=orthogonalEdgeStyle;rounded=0;orthogonalLoop=1;jettySize=auto;html=1;exitX=0;exitY=0;exitDx=0;exitDy=0;entryX=0.5;entryY=1;entryDx=0;entryDy=0;" parent="1" edge="1">
          <mxGeometry relative="1" as="geometry">
            <mxPoint x="332.57359312880726" y="509.5757287525381" as="sourcePoint" />
            <mxPoint x="591" y="447.86" as="targetPoint" />
          </mxGeometry>
        </mxCell>
        <mxCell id="YTMLcz7YYUY0m6SRXqwy-20" style="edgeStyle=orthogonalEdgeStyle;rounded=0;orthogonalLoop=1;jettySize=auto;html=1;exitX=1;exitY=0;exitDx=0;exitDy=0;entryX=0.5;entryY=1;entryDx=0;entryDy=0;" edge="1" parent="1" source="NslIbUxPtnbfVK3_lYNh-3" target="NslIbUxPtnbfVK3_lYNh-6">
          <mxGeometry relative="1" as="geometry">
            <Array as="points">
              <mxPoint x="205" y="470" />
            </Array>
          </mxGeometry>
        </mxCell>
        <mxCell id="NslIbUxPtnbfVK3_lYNh-3" value="основные понятия" style="rounded=0;whiteSpace=wrap;html=1;" parent="1" vertex="1">
          <mxGeometry x="90" y="470" width="60" height="40" as="geometry" />
        </mxCell>
        <mxCell id="NslIbUxPtnbfVK3_lYNh-5" value="процесс разработки" style="rounded=0;whiteSpace=wrap;html=1;" parent="1" vertex="1">
          <mxGeometry x="85" y="385" width="70" height="30" as="geometry" />
        </mxCell>
        <mxCell id="NslIbUxPtnbfVK3_lYNh-6" value="артефакт" style="rounded=0;whiteSpace=wrap;html=1;" parent="1" vertex="1">
          <mxGeometry x="175" y="392.5" width="60" height="15" as="geometry" />
        </mxCell>
        <mxCell id="NslIbUxPtnbfVK3_lYNh-7" value="модель" style="rounded=0;whiteSpace=wrap;html=1;" parent="1" vertex="1">
          <mxGeometry x="25" y="390" width="40" height="20" as="geometry" />
        </mxCell>
        <mxCell id="NslIbUxPtnbfVK3_lYNh-10" value="" style="endArrow=classic;html=1;rounded=0;exitX=0.5;exitY=0;exitDx=0;exitDy=0;entryX=0.5;entryY=1;entryDx=0;entryDy=0;" parent="1" source="NslIbUxPtnbfVK3_lYNh-3" target="NslIbUxPtnbfVK3_lYNh-5" edge="1">
          <mxGeometry width="50" height="50" relative="1" as="geometry">
            <mxPoint x="606" y="630" as="sourcePoint" />
            <mxPoint x="656" y="580" as="targetPoint" />
          </mxGeometry>
        </mxCell>
        <mxCell id="NslIbUxPtnbfVK3_lYNh-12" value="унифицированный процесс" style="rounded=0;whiteSpace=wrap;html=1;" parent="1" vertex="1">
          <mxGeometry x="65" y="330" width="110" height="30" as="geometry" />
        </mxCell>
        <mxCell id="NslIbUxPtnbfVK3_lYNh-13" value="вариант использования" style="rounded=0;whiteSpace=wrap;html=1;" parent="1" vertex="1">
          <mxGeometry x="645" y="710" width="90" height="30" as="geometry" />
        </mxCell>
        <mxCell id="NslIbUxPtnbfVK3_lYNh-14" value="" style="endArrow=classic;html=1;rounded=0;exitX=0.5;exitY=0;exitDx=0;exitDy=0;entryX=0.5;entryY=1;entryDx=0;entryDy=0;" parent="1" source="NslIbUxPtnbfVK3_lYNh-5" target="NslIbUxPtnbfVK3_lYNh-12" edge="1">
          <mxGeometry width="50" height="50" relative="1" as="geometry">
            <mxPoint x="726" y="520" as="sourcePoint" />
            <mxPoint x="776" y="470" as="targetPoint" />
          </mxGeometry>
        </mxCell>
        <mxCell id="NslIbUxPtnbfVK3_lYNh-23" style="edgeStyle=orthogonalEdgeStyle;rounded=0;orthogonalLoop=1;jettySize=auto;html=1;exitX=0.5;exitY=1;exitDx=0;exitDy=0;entryX=0.5;entryY=0;entryDx=0;entryDy=0;" parent="1" source="NslIbUxPtnbfVK3_lYNh-16" target="NslIbUxPtnbfVK3_lYNh-21" edge="1">
          <mxGeometry relative="1" as="geometry" />
        </mxCell>
        <mxCell id="NslIbUxPtnbfVK3_lYNh-25" style="edgeStyle=orthogonalEdgeStyle;rounded=0;orthogonalLoop=1;jettySize=auto;html=1;exitX=0.25;exitY=1;exitDx=0;exitDy=0;entryX=1;entryY=0.5;entryDx=0;entryDy=0;" parent="1" source="NslIbUxPtnbfVK3_lYNh-16" target="NslIbUxPtnbfVK3_lYNh-20" edge="1">
          <mxGeometry relative="1" as="geometry">
            <Array as="points">
              <mxPoint x="340" y="730" />
              <mxPoint x="340" y="775" />
            </Array>
          </mxGeometry>
        </mxCell>
        <mxCell id="YTMLcz7YYUY0m6SRXqwy-12" value="" style="edgeStyle=orthogonalEdgeStyle;rounded=0;orthogonalLoop=1;jettySize=auto;html=1;" edge="1" parent="1" source="NslIbUxPtnbfVK3_lYNh-16" target="NslIbUxPtnbfVK3_lYNh-19">
          <mxGeometry relative="1" as="geometry">
            <Array as="points">
              <mxPoint x="520" y="730" />
              <mxPoint x="520" y="730" />
            </Array>
          </mxGeometry>
        </mxCell>
        <mxCell id="NslIbUxPtnbfVK3_lYNh-16" value="диаграммы" style="rounded=0;whiteSpace=wrap;html=1;" parent="1" vertex="1">
          <mxGeometry x="340" y="720" width="70" height="30" as="geometry" />
        </mxCell>
        <mxCell id="NslIbUxPtnbfVK3_lYNh-36" style="edgeStyle=orthogonalEdgeStyle;rounded=0;orthogonalLoop=1;jettySize=auto;html=1;exitX=1;exitY=0.5;exitDx=0;exitDy=0;entryX=0;entryY=0.5;entryDx=0;entryDy=0;" parent="1" source="NslIbUxPtnbfVK3_lYNh-19" target="NslIbUxPtnbfVK3_lYNh-13" edge="1">
          <mxGeometry relative="1" as="geometry" />
        </mxCell>
        <mxCell id="NslIbUxPtnbfVK3_lYNh-19" value="диаграмма вариантов использования" style="rounded=0;whiteSpace=wrap;html=1;" parent="1" vertex="1">
          <mxGeometry x="520" y="705" width="90" height="40" as="geometry" />
        </mxCell>
        <mxCell id="NslIbUxPtnbfVK3_lYNh-44" style="edgeStyle=orthogonalEdgeStyle;rounded=0;orthogonalLoop=1;jettySize=auto;html=1;exitX=0.5;exitY=0;exitDx=0;exitDy=0;entryX=0.5;entryY=1;entryDx=0;entryDy=0;" parent="1" source="NslIbUxPtnbfVK3_lYNh-20" target="NslIbUxPtnbfVK3_lYNh-43" edge="1">
          <mxGeometry relative="1" as="geometry" />
        </mxCell>
        <mxCell id="YTMLcz7YYUY0m6SRXqwy-8" value="" style="edgeStyle=orthogonalEdgeStyle;rounded=0;orthogonalLoop=1;jettySize=auto;html=1;" edge="1" parent="1" source="NslIbUxPtnbfVK3_lYNh-20" target="NslIbUxPtnbfVK3_lYNh-37">
          <mxGeometry relative="1" as="geometry">
            <Array as="points">
              <mxPoint x="120" y="775" />
              <mxPoint x="120" y="775" />
            </Array>
          </mxGeometry>
        </mxCell>
        <mxCell id="YTMLcz7YYUY0m6SRXqwy-26" style="edgeStyle=orthogonalEdgeStyle;rounded=0;orthogonalLoop=1;jettySize=auto;html=1;entryX=0.786;entryY=0.029;entryDx=0;entryDy=0;entryPerimeter=0;" edge="1" parent="1" source="NslIbUxPtnbfVK3_lYNh-20" target="NslIbUxPtnbfVK3_lYNh-41">
          <mxGeometry relative="1" as="geometry">
            <mxPoint x="205" y="860" as="targetPoint" />
          </mxGeometry>
        </mxCell>
        <mxCell id="NslIbUxPtnbfVK3_lYNh-20" value="Диаграмма взаимодействий" style="rounded=0;whiteSpace=wrap;html=1;" parent="1" vertex="1">
          <mxGeometry x="150" y="760" width="110" height="30" as="geometry" />
        </mxCell>
        <mxCell id="NslIbUxPtnbfVK3_lYNh-21" value="диаграмма классов" style="rounded=0;whiteSpace=wrap;html=1;" parent="1" vertex="1">
          <mxGeometry x="646" y="870" width="70" height="30" as="geometry" />
        </mxCell>
        <mxCell id="NslIbUxPtnbfVK3_lYNh-26" value="актёры" style="rounded=0;whiteSpace=wrap;html=1;" parent="1" vertex="1">
          <mxGeometry x="90" y="550" width="60" height="20" as="geometry" />
        </mxCell>
        <mxCell id="NslIbUxPtnbfVK3_lYNh-27" value="" style="endArrow=classic;html=1;rounded=0;exitX=0.5;exitY=1;exitDx=0;exitDy=0;entryX=0.5;entryY=0;entryDx=0;entryDy=0;" parent="1" source="NslIbUxPtnbfVK3_lYNh-3" target="NslIbUxPtnbfVK3_lYNh-26" edge="1">
          <mxGeometry width="50" height="50" relative="1" as="geometry">
            <mxPoint x="610" y="730" as="sourcePoint" />
            <mxPoint x="640" y="770" as="targetPoint" />
          </mxGeometry>
        </mxCell>
        <mxCell id="NslIbUxPtnbfVK3_lYNh-59" style="edgeStyle=orthogonalEdgeStyle;rounded=0;orthogonalLoop=1;jettySize=auto;html=1;exitX=0.75;exitY=1;exitDx=0;exitDy=0;entryX=0.5;entryY=0;entryDx=0;entryDy=0;" parent="1" source="NslIbUxPtnbfVK3_lYNh-28" target="NslIbUxPtnbfVK3_lYNh-56" edge="1">
          <mxGeometry relative="1" as="geometry">
            <Array as="points">
              <mxPoint x="776" y="1000" />
            </Array>
          </mxGeometry>
        </mxCell>
        <mxCell id="NslIbUxPtnbfVK3_lYNh-60" style="edgeStyle=orthogonalEdgeStyle;rounded=0;orthogonalLoop=1;jettySize=auto;html=1;exitX=0.5;exitY=1;exitDx=0;exitDy=0;entryX=0.5;entryY=0;entryDx=0;entryDy=0;" parent="1" source="NslIbUxPtnbfVK3_lYNh-28" target="NslIbUxPtnbfVK3_lYNh-58" edge="1">
          <mxGeometry relative="1" as="geometry" />
        </mxCell>
        <mxCell id="NslIbUxPtnbfVK3_lYNh-28" value="классы" style="rounded=0;whiteSpace=wrap;html=1;" parent="1" vertex="1">
          <mxGeometry x="656" y="970" width="50" height="30" as="geometry" />
        </mxCell>
        <mxCell id="YTMLcz7YYUY0m6SRXqwy-15" style="edgeStyle=orthogonalEdgeStyle;rounded=0;orthogonalLoop=1;jettySize=auto;html=1;exitX=0;exitY=0;exitDx=0;exitDy=0;entryX=0.5;entryY=1;entryDx=0;entryDy=0;" edge="1" parent="1" source="NslIbUxPtnbfVK3_lYNh-30" target="NslIbUxPtnbfVK3_lYNh-32">
          <mxGeometry relative="1" as="geometry" />
        </mxCell>
        <mxCell id="YTMLcz7YYUY0m6SRXqwy-16" style="edgeStyle=orthogonalEdgeStyle;rounded=0;orthogonalLoop=1;jettySize=auto;html=1;exitX=1;exitY=0;exitDx=0;exitDy=0;entryX=0.25;entryY=1;entryDx=0;entryDy=0;" edge="1" parent="1" source="NslIbUxPtnbfVK3_lYNh-30" target="NslIbUxPtnbfVK3_lYNh-33">
          <mxGeometry relative="1" as="geometry" />
        </mxCell>
        <mxCell id="NslIbUxPtnbfVK3_lYNh-30" value="моделирование" style="rounded=0;whiteSpace=wrap;html=1;" parent="1" vertex="1">
          <mxGeometry x="546" y="430" width="90" height="30" as="geometry" />
        </mxCell>
        <mxCell id="NslIbUxPtnbfVK3_lYNh-32" value="статическое" style="rounded=0;whiteSpace=wrap;html=1;" parent="1" vertex="1">
          <mxGeometry x="510" y="390" width="70" height="20" as="geometry" />
        </mxCell>
        <mxCell id="NslIbUxPtnbfVK3_lYNh-33" value="динамическое" style="rounded=0;whiteSpace=wrap;html=1;" parent="1" vertex="1">
          <mxGeometry x="610" y="390" width="90" height="20" as="geometry" />
        </mxCell>
        <mxCell id="NslIbUxPtnbfVK3_lYNh-37" value="участники" style="rounded=0;whiteSpace=wrap;html=1;" parent="1" vertex="1">
          <mxGeometry x="40" y="760" width="60" height="25" as="geometry" />
        </mxCell>
        <mxCell id="NslIbUxPtnbfVK3_lYNh-40" value="" style="endArrow=classic;html=1;rounded=0;exitX=0.5;exitY=1;exitDx=0;exitDy=0;entryX=0.5;entryY=0;entryDx=0;entryDy=0;" parent="1" source="NslIbUxPtnbfVK3_lYNh-21" target="NslIbUxPtnbfVK3_lYNh-28" edge="1">
          <mxGeometry width="50" height="50" relative="1" as="geometry">
            <mxPoint x="306" y="990" as="sourcePoint" />
            <mxPoint x="356" y="940" as="targetPoint" />
          </mxGeometry>
        </mxCell>
        <mxCell id="NslIbUxPtnbfVK3_lYNh-51" style="edgeStyle=orthogonalEdgeStyle;rounded=0;orthogonalLoop=1;jettySize=auto;html=1;exitX=0;exitY=1;exitDx=0;exitDy=0;entryX=0.5;entryY=0;entryDx=0;entryDy=0;" parent="1" source="NslIbUxPtnbfVK3_lYNh-41" target="NslIbUxPtnbfVK3_lYNh-46" edge="1">
          <mxGeometry relative="1" as="geometry">
            <Array as="points">
              <mxPoint x="45" y="900" />
            </Array>
          </mxGeometry>
        </mxCell>
        <mxCell id="NslIbUxPtnbfVK3_lYNh-52" style="edgeStyle=orthogonalEdgeStyle;rounded=0;orthogonalLoop=1;jettySize=auto;html=1;exitX=0.25;exitY=1;exitDx=0;exitDy=0;entryX=0.5;entryY=0;entryDx=0;entryDy=0;" parent="1" edge="1">
          <mxGeometry relative="1" as="geometry">
            <mxPoint x="164.98" y="900" as="sourcePoint" />
            <mxPoint x="122.48" y="990" as="targetPoint" />
            <Array as="points">
              <mxPoint x="122" y="900" />
            </Array>
          </mxGeometry>
        </mxCell>
        <mxCell id="NslIbUxPtnbfVK3_lYNh-53" style="edgeStyle=orthogonalEdgeStyle;rounded=0;orthogonalLoop=1;jettySize=auto;html=1;exitX=0.5;exitY=1;exitDx=0;exitDy=0;entryX=0.5;entryY=0;entryDx=0;entryDy=0;" parent="1" source="NslIbUxPtnbfVK3_lYNh-41" target="NslIbUxPtnbfVK3_lYNh-45" edge="1">
          <mxGeometry relative="1" as="geometry">
            <Array as="points">
              <mxPoint x="200" y="900" />
            </Array>
          </mxGeometry>
        </mxCell>
        <mxCell id="NslIbUxPtnbfVK3_lYNh-54" style="edgeStyle=orthogonalEdgeStyle;rounded=0;orthogonalLoop=1;jettySize=auto;html=1;exitX=0.75;exitY=1;exitDx=0;exitDy=0;entryX=0.5;entryY=0;entryDx=0;entryDy=0;" parent="1" edge="1">
          <mxGeometry relative="1" as="geometry">
            <mxPoint x="190.02" y="900" as="sourcePoint" />
            <mxPoint x="292.52" y="995" as="targetPoint" />
          </mxGeometry>
        </mxCell>
        <mxCell id="NslIbUxPtnbfVK3_lYNh-55" style="edgeStyle=orthogonalEdgeStyle;rounded=0;orthogonalLoop=1;jettySize=auto;html=1;exitX=1;exitY=1;exitDx=0;exitDy=0;entryX=0.5;entryY=0;entryDx=0;entryDy=0;" parent="1" edge="1">
          <mxGeometry relative="1" as="geometry">
            <mxPoint x="225" y="900" as="sourcePoint" />
            <mxPoint x="435" y="995" as="targetPoint" />
          </mxGeometry>
        </mxCell>
        <mxCell id="NslIbUxPtnbfVK3_lYNh-41" value="сообщения" style="rounded=0;whiteSpace=wrap;html=1;" parent="1" vertex="1">
          <mxGeometry x="150" y="870" width="70" height="30" as="geometry" />
        </mxCell>
        <mxCell id="NslIbUxPtnbfVK3_lYNh-43" value="линия жизни" style="rounded=0;whiteSpace=wrap;html=1;" parent="1" vertex="1">
          <mxGeometry x="165" y="680" width="80" height="25" as="geometry" />
        </mxCell>
        <mxCell id="NslIbUxPtnbfVK3_lYNh-45" value="синхронное сообщение" style="rounded=0;whiteSpace=wrap;html=1;" parent="1" vertex="1">
          <mxGeometry x="165" y="990" width="70" height="40" as="geometry" />
        </mxCell>
        <mxCell id="NslIbUxPtnbfVK3_lYNh-46" value="асинхронное сообщение" style="rounded=0;whiteSpace=wrap;html=1;" parent="1" vertex="1">
          <mxGeometry x="5" y="990" width="80" height="35" as="geometry" />
        </mxCell>
        <mxCell id="NslIbUxPtnbfVK3_lYNh-47" value="возврат" style="rounded=0;whiteSpace=wrap;html=1;" parent="1" vertex="1">
          <mxGeometry x="100" y="990" width="50" height="20" as="geometry" />
        </mxCell>
        <mxCell id="NslIbUxPtnbfVK3_lYNh-48" value="создание объекта" style="rounded=0;whiteSpace=wrap;html=1;" parent="1" vertex="1">
          <mxGeometry x="250" y="995" width="110" height="20" as="geometry" />
        </mxCell>
        <mxCell id="NslIbUxPtnbfVK3_lYNh-49" value="уничтоение объекта" style="rounded=0;whiteSpace=wrap;html=1;" parent="1" vertex="1">
          <mxGeometry x="370" y="995" width="120" height="20" as="geometry" />
        </mxCell>
        <mxCell id="NslIbUxPtnbfVK3_lYNh-56" value="активный" style="rounded=0;whiteSpace=wrap;html=1;" parent="1" vertex="1">
          <mxGeometry x="746" y="1080" width="60" height="20" as="geometry" />
        </mxCell>
        <mxCell id="NslIbUxPtnbfVK3_lYNh-57" value="пассивный" style="rounded=0;whiteSpace=wrap;html=1;" parent="1" vertex="1">
          <mxGeometry x="546" y="1080" width="70" height="20" as="geometry" />
        </mxCell>
        <mxCell id="NslIbUxPtnbfVK3_lYNh-58" value="абстрактный" style="rounded=0;whiteSpace=wrap;html=1;" parent="1" vertex="1">
          <mxGeometry x="641" y="1080" width="80" height="20" as="geometry" />
        </mxCell>
        <mxCell id="YTMLcz7YYUY0m6SRXqwy-21" value="" style="endArrow=classic;html=1;rounded=0;entryX=0.375;entryY=1;entryDx=0;entryDy=0;exitX=0;exitY=0;exitDx=0;exitDy=0;entryPerimeter=0;" edge="1" parent="1" source="NslIbUxPtnbfVK3_lYNh-3" target="NslIbUxPtnbfVK3_lYNh-7">
          <mxGeometry width="50" height="50" relative="1" as="geometry">
            <mxPoint x="90" y="490" as="sourcePoint" />
            <mxPoint x="140" y="440" as="targetPoint" />
            <Array as="points">
              <mxPoint x="70" y="470" />
              <mxPoint x="40" y="470" />
            </Array>
          </mxGeometry>
        </mxCell>
        <mxCell id="YTMLcz7YYUY0m6SRXqwy-22" value="" style="endArrow=classic;html=1;rounded=0;exitX=0.5;exitY=1;exitDx=0;exitDy=0;entryX=0.5;entryY=0;entryDx=0;entryDy=0;" edge="1" parent="1" source="NslIbUxPtnbfVK3_lYNh-28" target="NslIbUxPtnbfVK3_lYNh-57">
          <mxGeometry width="50" height="50" relative="1" as="geometry">
            <mxPoint x="490" y="930" as="sourcePoint" />
            <mxPoint x="540" y="1000" as="targetPoint" />
            <Array as="points">
              <mxPoint x="580" y="1000" />
            </Array>
          </mxGeometry>
        </mxCell>
        <mxCell id="YTMLcz7YYUY0m6SRXqwy-24" style="edgeStyle=orthogonalEdgeStyle;rounded=0;orthogonalLoop=1;jettySize=auto;html=1;entryX=0.394;entryY=-0.007;entryDx=0;entryDy=0;entryPerimeter=0;" edge="1" parent="1" source="YTMLcz7YYUY0m6SRXqwy-23" target="NslIbUxPtnbfVK3_lYNh-16">
          <mxGeometry relative="1" as="geometry" />
        </mxCell>
        <mxCell id="YTMLcz7YYUY0m6SRXqwy-25" style="edgeStyle=orthogonalEdgeStyle;rounded=0;orthogonalLoop=1;jettySize=auto;html=1;entryX=1;entryY=0.5;entryDx=0;entryDy=0;" edge="1" parent="1" source="YTMLcz7YYUY0m6SRXqwy-23" target="NslIbUxPtnbfVK3_lYNh-3">
          <mxGeometry relative="1" as="geometry">
            <Array as="points">
              <mxPoint x="368" y="490" />
            </Array>
          </mxGeometry>
        </mxCell>
        <mxCell id="YTMLcz7YYUY0m6SRXqwy-23" value="Теория. Программная инженерия" style="rounded=0;whiteSpace=wrap;html=1;" vertex="1" parent="1">
          <mxGeometry x="300" y="510" width="135" height="70" as="geometry" />
        </mxCell>
      </root>
    </mxGraphModel>
  </diagram>
</mxfile>
